{"title":"Glory 29 Copenhagen 720p WEB-DL x264 [TJET]","uid":14346911,"size":2657840737,"categoryP":"video","categoryS":"hd___tv_shows","magnet":"?xt=urn:btih:baf23b142dcb63e4a69fbebf24a76128d5a32868&amp;dn=Glory+29+Copenhagen+720p+WEB-DL+x264+%5BTJET%5D&amp;tr=udp%3A%2F%2Ftracker.leechers-paradise.org%3A6969&amp;tr=udp%3A%2F%2Fzer0day.ch%3A1337&amp;tr=udp%3A%2F%2Fopen.demonii.com%3A1337&amp;tr=udp%3A%2F%2Ftracker.coppersurfer.tk%3A6969&amp;tr=udp%3A%2F%2Fexodus.desync.com%3A6969","seeders":0,"leechers":1,"uploader":"CenaCme","files":2,"time":1460982643,"description":"Jahfarr Wilnis vs Kirill Kornilov (Semifinal #1)\r\nAnderson Silva vs Ismael Londt (Semifinal #2)\r\nSerhiy Adamchuk vs Mohammed El-Mir\r\nWinner Semifinal #1 vs Winner Semifinal #2\r\nNieky Holzken vs Yoann Kongolo\r\n\r\nGeneral\r\nComplete name                            : Glory.29.Copenhagen.720p.WEB-DL.x264.mp4\r\nFormat                                   : MPEG-4\r\nFormat profile                           : Base Media\r\nCodec ID                                 : isom\r\nFile size                                : 2.48 GiB\r\nDuration                                 : 2h 21mn\r\nOverall bit rate mode                    : Constant\r\nOverall bit rate                         : 2 504 Kbps\r\nWriting application                      : Lavf56.27.100\r\n\r\nVideo\r\nID                                       : 1\r\nFormat                                   : AVC\r\nFormat/Info                              : Advanced Video Codec\r\nFormat profile                           :   \r\nFormat settings, CABAC                   : Yes\r\nFormat settings, ReFrames                : 2 frames\r\nCodec ID                                 : avc1\r\nCodec ID/Info                            : Advanced Video Coding\r\nDuration                                 : 2h 21mn\r\nBit rate mode                            : Constant\r\nBit rate                                 : 2 400 Kbps\r\nWidth                                    : 1 280 pixels\r\nHeight                                   : 720 pixels\r\nDisplay aspect ratio                     : 16:9\r\nFrame rate mode                          : Constant\r\nFrame rate                               : 25.000 fps\r\nColor space                              : YUV\r\nChroma subsampling                       : 4:2:0\r\nBit depth                                : 8 bits\r\nScan type                                : Progressive\r\nBits/(Pixel*Frame)                       : 0.104\r\nStream size                              : 2.35 GiB (95%)\r\n\r\nAudio\r\nID                                       : 2\r\nFormat                                   : AAC\r\nFormat/Info                              : Advanced Audio Codec\r\nFormat profile                           : LC\r\nCodec ID                                 : 40\r\nDuration                                 : 2h 21mn\r\nBit rate mode                            : Constant\r\nBit rate                                 : 125 Kbps\r\nChannel(s)                               : 2 channels\r\nChannel positions                        : Front: L R\r\nSampling rate                            : 48.0 KHz\r\nCompression mode                         : Lossy\r\nStream size                              : 127 MiB (5%)\r\n\r\n\r\nThumb sheet:\r\n \nhttps://extraimago.com/image/aLTt","torrent":{"xt":"urn:btih:baf23b142dcb63e4a69fbebf24a76128d5a32868","amp;dn":"Glory+29+Copenhagen+720p+WEB-DL+x264+%5BTJET%5D","amp;tr":["udp%3A%2F%2Ftracker.leechers-paradise.org%3A6969","udp%3A%2F%2Fzer0day.ch%3A1337","udp%3A%2F%2Fopen.demonii.com%3A1337","udp%3A%2F%2Ftracker.coppersurfer.tk%3A6969","udp%3A%2F%2Fexodus.desync.com%3A6969"],"infoHash":"baf23b142dcb63e4a69fbebf24a76128d5a32868","infoHashBuffer":{"type":"Buffer","data":[186,242,59,20,45,203,99,228,166,159,190,191,36,167,97,40,213,163,40,104]},"announce":[],"urlList":[]}}